<svg width="115" height="19" viewBox="0 0 115 19" fill="none" xmlns="http://www.w3.org/2000/svg">
<path d="M4.02557 18.5H0.0710228L6.09659 1.04545H10.8523L16.8693 18.5H12.9148L8.54261 5.03409H8.40625L4.02557 18.5ZM3.77841 11.6392H13.1193V14.5199H3.77841V11.6392ZM30.4893 9.14205L27.1655 9.34659C27.1087 9.0625 26.9865 8.80682 26.799 8.57955C26.6115 8.34659 26.3643 8.16193 26.0575 8.02557C25.7564 7.88352 25.3956 7.8125 24.9751 7.8125C24.4126 7.8125 23.9382 7.93182 23.5518 8.17045C23.1655 8.40341 22.9723 8.71591 22.9723 9.10795C22.9723 9.42045 23.0973 9.68466 23.3473 9.90057C23.5973 10.1165 24.0263 10.2898 24.6342 10.4205L27.0036 10.8977C28.2763 11.1591 29.2251 11.5795 29.8501 12.1591C30.4751 12.7386 30.7876 13.5 30.7876 14.4432C30.7876 15.3011 30.5348 16.054 30.0291 16.7017C29.5291 17.3494 28.8416 17.8551 27.9666 18.2188C27.0973 18.5767 26.0945 18.7557 24.9581 18.7557C23.2251 18.7557 21.8445 18.3949 20.8161 17.6733C19.7933 16.946 19.1939 15.9574 19.0178 14.7074L22.5888 14.5199C22.6967 15.0483 22.9581 15.4517 23.3729 15.7301C23.7876 16.0028 24.3189 16.1392 24.9666 16.1392C25.603 16.1392 26.1143 16.017 26.5007 15.7727C26.8928 15.5227 27.0916 15.2017 27.0973 14.8097C27.0916 14.4801 26.9524 14.2102 26.6797 14C26.407 13.7841 25.9865 13.6193 25.4183 13.5057L23.1513 13.054C21.8729 12.7983 20.9212 12.3551 20.2962 11.7244C19.6768 11.0937 19.3672 10.2898 19.3672 9.3125C19.3672 8.47159 19.5945 7.74716 20.049 7.1392C20.5092 6.53125 21.1541 6.0625 21.9837 5.73295C22.8189 5.40341 23.7962 5.23864 24.9155 5.23864C26.5689 5.23864 27.87 5.58807 28.8189 6.28693C29.7734 6.9858 30.3303 7.9375 30.4893 9.14205ZM37.3636 14.733L37.3722 10.3778H37.9006L42.0938 5.40909H46.2614L40.6278 11.9886H39.767L37.3636 14.733ZM34.0739 18.5V1.04545H37.7045V18.5H34.0739ZM42.2557 18.5L38.4034 12.7983L40.8239 10.233L46.5085 18.5H42.2557ZM49.0426 18.5V5.40909H52.5028V7.71875H52.6562C52.929 6.9517 53.3835 6.34659 54.0199 5.90341C54.6562 5.46023 55.4176 5.23864 56.304 5.23864C57.2017 5.23864 57.9659 5.46307 58.5966 5.91193C59.2273 6.35511 59.6477 6.95739 59.858 7.71875H59.9943C60.2614 6.96875 60.7443 6.36932 61.4432 5.92045C62.1477 5.46591 62.9801 5.23864 63.9403 5.23864C65.1619 5.23864 66.1534 5.62784 66.9148 6.40625C67.6818 7.17898 68.0653 8.27557 68.0653 9.69602V18.5H64.4432V10.4119C64.4432 9.68466 64.25 9.1392 63.8636 8.77557C63.4773 8.41193 62.9943 8.23011 62.4148 8.23011C61.7557 8.23011 61.2415 8.44034 60.8722 8.8608C60.5028 9.27557 60.3182 9.82386 60.3182 10.5057V18.5H56.7983V10.3352C56.7983 9.69318 56.6136 9.18182 56.2443 8.80114C55.8807 8.42045 55.4006 8.23011 54.804 8.23011C54.4006 8.23011 54.0369 8.33239 53.7131 8.53693C53.3949 8.7358 53.142 9.01705 52.9545 9.38068C52.767 9.73864 52.6733 10.1591 52.6733 10.642V18.5H49.0426ZM77.8991 18.7557C76.5526 18.7557 75.3935 18.483 74.4219 17.9375C73.456 17.3864 72.7116 16.608 72.1889 15.6023C71.6662 14.5909 71.4048 13.3949 71.4048 12.0142C71.4048 10.6676 71.6662 9.4858 72.1889 8.46875C72.7116 7.4517 73.4474 6.65909 74.3963 6.09091C75.3509 5.52273 76.4702 5.23864 77.7543 5.23864C78.6179 5.23864 79.4219 5.37784 80.1662 5.65625C80.9162 5.92898 81.5696 6.34091 82.1264 6.89205C82.6889 7.44318 83.1264 8.13636 83.4389 8.97159C83.7514 9.80114 83.9077 10.7727 83.9077 11.8864V12.8835H72.8537V10.6335H80.4901C80.4901 10.1108 80.3764 9.64773 80.1491 9.24432C79.9219 8.84091 79.6065 8.52557 79.2031 8.2983C78.8054 8.06534 78.3423 7.94886 77.8139 7.94886C77.2628 7.94886 76.7741 8.0767 76.348 8.33239C75.9276 8.58239 75.598 8.92045 75.3594 9.34659C75.1207 9.76705 74.9986 10.2358 74.9929 10.7528V12.892C74.9929 13.5398 75.1122 14.0994 75.3509 14.571C75.5952 15.0426 75.9389 15.4062 76.3821 15.6619C76.8253 15.9176 77.3509 16.0455 77.9588 16.0455C78.3622 16.0455 78.7315 15.9886 79.0668 15.875C79.402 15.7614 79.6889 15.5909 79.9276 15.3636C80.1662 15.1364 80.348 14.858 80.473 14.5284L83.831 14.75C83.6605 15.5568 83.3111 16.2614 82.7827 16.8636C82.2599 17.4602 81.5838 17.9261 80.7543 18.2614C79.9304 18.5909 78.9787 18.7557 77.8991 18.7557ZM89.3991 18.7216C88.8366 18.7216 88.3537 18.5227 87.9503 18.125C87.5526 17.7216 87.3537 17.2386 87.3537 16.6761C87.3537 16.1193 87.5526 15.642 87.9503 15.2443C88.3537 14.8466 88.8366 14.6477 89.3991 14.6477C89.9446 14.6477 90.4219 14.8466 90.831 15.2443C91.2401 15.642 91.4446 16.1193 91.4446 16.6761C91.4446 17.0511 91.348 17.3949 91.1548 17.7074C90.9673 18.0142 90.7202 18.2614 90.4134 18.4489C90.1065 18.6307 89.7685 18.7216 89.3991 18.7216ZM99.1584 18.7472C98.3232 18.7472 97.5788 18.6023 96.9254 18.3125C96.272 18.017 95.755 17.5824 95.3743 17.0085C94.9993 16.429 94.8118 15.7074 94.8118 14.8438C94.8118 14.1165 94.9453 13.5057 95.2124 13.0114C95.4794 12.517 95.843 12.1193 96.3033 11.8182C96.7635 11.517 97.2862 11.2898 97.8714 11.1364C98.4624 10.983 99.0817 10.875 99.7294 10.8125C100.491 10.733 101.104 10.6591 101.57 10.5909C102.036 10.517 102.374 10.4091 102.585 10.267C102.795 10.125 102.9 9.91477 102.9 9.63636V9.58523C102.9 9.04545 102.729 8.62784 102.388 8.33239C102.053 8.03693 101.576 7.8892 100.957 7.8892C100.303 7.8892 99.7834 8.03409 99.397 8.32386C99.0107 8.60795 98.755 8.96591 98.63 9.39773L95.272 9.125C95.4425 8.32955 95.7777 7.64205 96.2777 7.0625C96.7777 6.47727 97.4226 6.02841 98.2124 5.71591C99.0078 5.39773 99.9283 5.23864 100.974 5.23864C101.701 5.23864 102.397 5.32386 103.062 5.49432C103.732 5.66477 104.326 5.92898 104.843 6.28693C105.366 6.64489 105.778 7.10511 106.079 7.66761C106.38 8.22443 106.531 8.89205 106.531 9.67045V18.5H103.087V16.6847H102.985C102.775 17.0938 102.494 17.4545 102.141 17.767C101.789 18.0739 101.366 18.3153 100.871 18.4915C100.377 18.6619 99.8061 18.7472 99.1584 18.7472ZM100.198 16.2415C100.732 16.2415 101.204 16.1364 101.613 15.9261C102.022 15.7102 102.343 15.4205 102.576 15.0568C102.809 14.6932 102.925 14.2812 102.925 13.821V12.4318C102.812 12.5057 102.656 12.5739 102.457 12.6364C102.263 12.6932 102.045 12.7472 101.8 12.7983C101.556 12.8437 101.312 12.8864 101.067 12.9261C100.823 12.9602 100.602 12.9915 100.403 13.0199C99.9766 13.0824 99.6044 13.1818 99.2862 13.3182C98.968 13.4545 98.7209 13.6392 98.5447 13.8722C98.3686 14.0994 98.2805 14.3835 98.2805 14.7244C98.2805 15.2188 98.4595 15.5966 98.8175 15.858C99.1811 16.1136 99.6413 16.2415 100.198 16.2415ZM110.347 18.5V5.40909H113.978V18.5H110.347ZM112.171 3.72159C111.631 3.72159 111.168 3.54261 110.782 3.18466C110.401 2.82102 110.211 2.38636 110.211 1.88068C110.211 1.38068 110.401 0.951704 110.782 0.59375C111.168 0.230113 111.631 0.0482945 112.171 0.0482945C112.711 0.0482945 113.171 0.230113 113.552 0.59375C113.938 0.951704 114.131 1.38068 114.131 1.88068C114.131 2.38636 113.938 2.82102 113.552 3.18466C113.171 3.54261 112.711 3.72159 112.171 3.72159Z" fill="#1E2028"/>
</svg>
