<svg width="115" height="20" viewBox="0 0 115 20" fill="none" xmlns="http://www.w3.org/2000/svg">
<path d="M4.52557 19H0.571023L6.59659 1.54545H11.3523L17.3693 19H13.4148L9.04261 5.53409H8.90625L4.52557 19ZM4.27841 12.1392H13.6193V15.0199H4.27841V12.1392ZM30.9893 9.64205L27.6655 9.84659C27.6087 9.5625 27.4865 9.30682 27.299 9.07955C27.1115 8.84659 26.8643 8.66193 26.5575 8.52557C26.2564 8.38352 25.8956 8.3125 25.4751 8.3125C24.9126 8.3125 24.4382 8.43182 24.0518 8.67045C23.6655 8.90341 23.4723 9.21591 23.4723 9.60795C23.4723 9.92045 23.5973 10.1847 23.8473 10.4006C24.0973 10.6165 24.5263 10.7898 25.1342 10.9205L27.5036 11.3977C28.7763 11.6591 29.7251 12.0795 30.3501 12.6591C30.9751 13.2386 31.2876 14 31.2876 14.9432C31.2876 15.8011 31.0348 16.554 30.5291 17.2017C30.0291 17.8494 29.3416 18.3551 28.4666 18.7188C27.5973 19.0767 26.5945 19.2557 25.4581 19.2557C23.7251 19.2557 22.3445 18.8949 21.3161 18.1733C20.2933 17.446 19.6939 16.4574 19.5178 15.2074L23.0888 15.0199C23.1967 15.5483 23.4581 15.9517 23.8729 16.2301C24.2876 16.5028 24.8189 16.6392 25.4666 16.6392C26.103 16.6392 26.6143 16.517 27.0007 16.2727C27.3928 16.0227 27.5916 15.7017 27.5973 15.3097C27.5916 14.9801 27.4524 14.7102 27.1797 14.5C26.907 14.2841 26.4865 14.1193 25.9183 14.0057L23.6513 13.554C22.3729 13.2983 21.4212 12.8551 20.7962 12.2244C20.1768 11.5937 19.8672 10.7898 19.8672 9.8125C19.8672 8.97159 20.0945 8.24716 20.549 7.6392C21.0092 7.03125 21.6541 6.5625 22.4837 6.23295C23.3189 5.90341 24.2962 5.73864 25.4155 5.73864C27.0689 5.73864 28.37 6.08807 29.3189 6.78693C30.2734 7.4858 30.8303 8.4375 30.9893 9.64205ZM37.8636 15.233L37.8722 10.8778H38.4006L42.5938 5.90909H46.7614L41.1278 12.4886H40.267L37.8636 15.233ZM34.5739 19V1.54545H38.2045V19H34.5739ZM42.7557 19L38.9034 13.2983L41.3239 10.733L47.0085 19H42.7557ZM49.5426 19V5.90909H53.0028V8.21875H53.1562C53.429 7.4517 53.8835 6.84659 54.5199 6.40341C55.1562 5.96023 55.9176 5.73864 56.804 5.73864C57.7017 5.73864 58.4659 5.96307 59.0966 6.41193C59.7273 6.85511 60.1477 7.45739 60.358 8.21875H60.4943C60.7614 7.46875 61.2443 6.86932 61.9432 6.42045C62.6477 5.96591 63.4801 5.73864 64.4403 5.73864C65.6619 5.73864 66.6534 6.12784 67.4148 6.90625C68.1818 7.67898 68.5653 8.77557 68.5653 10.196V19H64.9432V10.9119C64.9432 10.1847 64.75 9.6392 64.3636 9.27557C63.9773 8.91193 63.4943 8.73011 62.9148 8.73011C62.2557 8.73011 61.7415 8.94034 61.3722 9.3608C61.0028 9.77557 60.8182 10.3239 60.8182 11.0057V19H57.2983V10.8352C57.2983 10.1932 57.1136 9.68182 56.7443 9.30114C56.3807 8.92045 55.9006 8.73011 55.304 8.73011C54.9006 8.73011 54.5369 8.83239 54.2131 9.03693C53.8949 9.2358 53.642 9.51705 53.4545 9.88068C53.267 10.2386 53.1733 10.6591 53.1733 11.142V19H49.5426ZM78.3991 19.2557C77.0526 19.2557 75.8935 18.983 74.9219 18.4375C73.956 17.8864 73.2116 17.108 72.6889 16.1023C72.1662 15.0909 71.9048 13.8949 71.9048 12.5142C71.9048 11.1676 72.1662 9.9858 72.6889 8.96875C73.2116 7.9517 73.9474 7.15909 74.8963 6.59091C75.8509 6.02273 76.9702 5.73864 78.2543 5.73864C79.1179 5.73864 79.9219 5.87784 80.6662 6.15625C81.4162 6.42898 82.0696 6.84091 82.6264 7.39205C83.1889 7.94318 83.6264 8.63636 83.9389 9.47159C84.2514 10.3011 84.4077 11.2727 84.4077 12.3864V13.3835H73.3537V11.1335H80.9901C80.9901 10.6108 80.8764 10.1477 80.6491 9.74432C80.4219 9.34091 80.1065 9.02557 79.7031 8.7983C79.3054 8.56534 78.8423 8.44886 78.3139 8.44886C77.7628 8.44886 77.2741 8.5767 76.848 8.83239C76.4276 9.08239 76.098 9.42045 75.8594 9.84659C75.6207 10.267 75.4986 10.7358 75.4929 11.2528V13.392C75.4929 14.0398 75.6122 14.5994 75.8509 15.071C76.0952 15.5426 76.4389 15.9062 76.8821 16.1619C77.3253 16.4176 77.8509 16.5455 78.4588 16.5455C78.8622 16.5455 79.2315 16.4886 79.5668 16.375C79.902 16.2614 80.1889 16.0909 80.4276 15.8636C80.6662 15.6364 80.848 15.358 80.973 15.0284L84.331 15.25C84.1605 16.0568 83.8111 16.7614 83.2827 17.3636C82.7599 17.9602 82.0838 18.4261 81.2543 18.7614C80.4304 19.0909 79.4787 19.2557 78.3991 19.2557ZM89.8991 19.2216C89.3366 19.2216 88.8537 19.0227 88.4503 18.625C88.0526 18.2216 87.8537 17.7386 87.8537 17.1761C87.8537 16.6193 88.0526 16.142 88.4503 15.7443C88.8537 15.3466 89.3366 15.1477 89.8991 15.1477C90.4446 15.1477 90.9219 15.3466 91.331 15.7443C91.7401 16.142 91.9446 16.6193 91.9446 17.1761C91.9446 17.5511 91.848 17.8949 91.6548 18.2074C91.4673 18.5142 91.2202 18.7614 90.9134 18.9489C90.6065 19.1307 90.2685 19.2216 89.8991 19.2216ZM99.6584 19.2472C98.8232 19.2472 98.0788 19.1023 97.4254 18.8125C96.772 18.517 96.255 18.0824 95.8743 17.5085C95.4993 16.929 95.3118 16.2074 95.3118 15.3438C95.3118 14.6165 95.4453 14.0057 95.7124 13.5114C95.9794 13.017 96.343 12.6193 96.8033 12.3182C97.2635 12.017 97.7862 11.7898 98.3714 11.6364C98.9624 11.483 99.5817 11.375 100.229 11.3125C100.991 11.233 101.604 11.1591 102.07 11.0909C102.536 11.017 102.874 10.9091 103.085 10.767C103.295 10.625 103.4 10.4148 103.4 10.1364V10.0852C103.4 9.54545 103.229 9.12784 102.888 8.83239C102.553 8.53693 102.076 8.3892 101.457 8.3892C100.803 8.3892 100.283 8.53409 99.897 8.82386C99.5107 9.10795 99.255 9.46591 99.13 9.89773L95.772 9.625C95.9425 8.82955 96.2777 8.14205 96.7777 7.5625C97.2777 6.97727 97.9226 6.52841 98.7124 6.21591C99.5078 5.89773 100.428 5.73864 101.474 5.73864C102.201 5.73864 102.897 5.82386 103.562 5.99432C104.232 6.16477 104.826 6.42898 105.343 6.78693C105.866 7.14489 106.278 7.60511 106.579 8.16761C106.88 8.72443 107.031 9.39205 107.031 10.1705V19H103.587V17.1847H103.485C103.275 17.5938 102.994 17.9545 102.641 18.267C102.289 18.5739 101.866 18.8153 101.371 18.9915C100.877 19.1619 100.306 19.2472 99.6584 19.2472ZM100.698 16.7415C101.232 16.7415 101.704 16.6364 102.113 16.4261C102.522 16.2102 102.843 15.9205 103.076 15.5568C103.309 15.1932 103.425 14.7812 103.425 14.321V12.9318C103.312 13.0057 103.156 13.0739 102.957 13.1364C102.763 13.1932 102.545 13.2472 102.3 13.2983C102.056 13.3437 101.812 13.3864 101.567 13.4261C101.323 13.4602 101.102 13.4915 100.903 13.5199C100.477 13.5824 100.104 13.6818 99.7862 13.8182C99.468 13.9545 99.2209 14.1392 99.0447 14.3722C98.8686 14.5994 98.7805 14.8835 98.7805 15.2244C98.7805 15.7188 98.9595 16.0966 99.3175 16.358C99.6811 16.6136 100.141 16.7415 100.698 16.7415ZM110.847 19V5.90909H114.478V19H110.847ZM112.671 4.22159C112.131 4.22159 111.668 4.04261 111.282 3.68466C110.901 3.32102 110.711 2.88636 110.711 2.38068C110.711 1.88068 110.901 1.4517 111.282 1.09375C111.668 0.730113 112.131 0.548295 112.671 0.548295C113.211 0.548295 113.671 0.730113 114.052 1.09375C114.438 1.4517 114.631 1.88068 114.631 2.38068C114.631 2.88636 114.438 3.32102 114.052 3.68466C113.671 4.04261 113.211 4.22159 112.671 4.22159Z" fill="#F7F7F7"/>
</svg>
